<?xml version="1.0" encoding="utf-8"?>
<!-- Generator: Adobe Illustrator 27.7.0, SVG Export Plug-In . SVG Version: 6.00 Build 0)  -->
<svg version="1.1" id="Layer_1" xmlns="http://www.w3.org/2000/svg" xmlns:xlink="http://www.w3.org/1999/xlink" x="0px" y="0px"
	 viewBox="0 0 398 69" style="enable-background:new 0 0 398 69;" xml:space="preserve">
<style type="text/css">
	.st0{fill:#002159;}
	.st1{fill:#5BCAF4;}
	.st2{fill:#44ACE1;}
	.st3{fill:#007AC1;}
</style>
<g>
	<g>
		<g>
			<path class="st0" d="M345.7,22c0.9-7.3-4-12.1-11.4-12.1h-16.2c-8.2,0-16.4,5.8-18.7,14.4c-2.3,8.5,2.8,14.4,11,14.4h16.2
				c7.5,0,14.9-4.8,17.9-12.1h-17.1c-1.4,3.5-3.5,4.5-6.9,4.5c-4,0-5.5-1.3-4-6.7c1.4-5.4,3.6-6.7,7.7-6.7c3.4,0,5,1,4.5,4.5H345.7z
				"/>
			<path class="st0" d="M269.4,31c-4.2,0-5.7-1.3-4.3-6.7c1.4-5.4,3.7-6.7,7.9-6.7c4.2,0,5.7,1.3,4.3,6.7
				C275.9,29.6,273.6,31,269.4,31z M283.4,9.8L283.4,9.8h-16.6h0c-8.2,0-16.4,5.8-18.7,14.4c-2.3,8.5,2.8,14.4,11,14.4h16.6
				c8.2,0,16.4-5.8,18.7-14.4C296.7,15.7,291.6,9.8,283.4,9.8z"/>
			<path class="st0" d="M219.2,17.5h5.2c1.9,0,3,1.5,2.5,3.4c-0.5,1.9-2.4,3.4-4.3,3.4h-5.2L219.2,17.5z M235.6,9.8h-31l-7.7,28.8
				h16.6l1.8-6.7h14.4c6.2,0,12.4-4.2,14.2-11C245.7,14.1,241.8,9.8,235.6,9.8z"/>
			<polygon class="st0" points="166.1,9.8 139.9,38.6 157.5,38.6 176.6,17.6 171,38.6 187.6,38.6 195.3,9.8 			"/>
			<path class="st0" d="M368.4,9.8l-26.2,28.8h17.5l4.3-4.7l9.2,4.7h16.6l7.7-28.8H368.4z M375.2,31.6l-6.1-3.1l9.9-10.9L375.2,31.6
				z"/>
			<path class="st0" d="M114.6,9.8L88.5,38.6H106l4.3-4.7l9.2,4.7h16.6l7.7-28.8H114.6z M121.4,31.6l-6.1-3.1l9.9-10.9L121.4,31.6z"
				/>
		</g>
		<g>
			<path class="st0" d="M95.5,56.7l-1.6-4.3l-1.7,4.3H95.5z M93.1,50.1h1.6l4.6,10.7h-2.2l-1-2.4h-4.6l-1,2.4h-2.1L93.1,50.1z"/>
			<path class="st0" d="M104.4,59.2h1.7c1,0,2.4-0.2,2.4-1.6c0-1.1-0.8-1.5-2.3-1.5h-1.8V59.2z M104.4,54.4h1.7
				c1.3,0,1.9-0.5,1.9-1.4c0-0.9-0.7-1.3-2.1-1.3h-1.5V54.4z M102.5,50.1h4.2c1.6,0,3.3,0.7,3.3,2.7c0,1.2-0.8,2-1.9,2.3v0
				c1.3,0.2,2.3,1.1,2.3,2.5c0,2.3-2,3.1-4,3.1h-3.8V50.1z"/>
			<polygon class="st0" points="114.1,50.1 116,50.1 116,57.9 116.1,57.9 121.1,50.1 123.1,50.1 123.1,60.8 121.2,60.8 121.2,53 
				121.2,53 116.2,60.8 114.1,60.8 			"/>
			<path class="st0" d="M133.4,56.7l-1.6-4.3l-1.7,4.3H133.4z M131,50.1h1.6l4.6,10.7H135l-1-2.4h-4.6l-1,2.4h-2.1L131,50.1z"/>
			<polygon class="st0" points="140.4,50.1 142.3,50.1 142.3,54.7 142.3,54.7 146.8,50.1 149.4,50.1 144.4,55 149.7,60.8 147,60.8 
				142.3,55.4 142.3,55.4 142.3,60.8 140.4,60.8 			"/>
			<path class="st0" d="M157,59.3c2.2,0,3.7-1.7,3.7-3.9c0-2.2-1.5-3.9-3.7-3.9c-2.2,0-3.7,1.7-3.7,3.9
				C153.4,57.7,154.9,59.3,157,59.3 M157,49.8c3.3,0,5.8,2.2,5.8,5.6c0,3.3-2.4,5.6-5.8,5.6c-3.3,0-5.7-2.3-5.7-5.6
				C151.3,52,153.7,49.8,157,49.8"/>
			<polygon class="st0" points="166.5,50.1 169.4,50.1 172.2,57.7 172.2,57.7 175,50.1 178,50.1 178,60.8 176.1,60.8 176.1,52.2 
				176.1,52.2 172.8,60.8 171.5,60.8 168.3,52.2 168.3,52.2 168.3,60.8 166.5,60.8 			"/>
			<polygon class="st0" points="182.2,50.1 190.9,50.1 190.9,60.8 189,60.8 189,51.7 184.1,51.7 184.1,60.8 182.2,60.8 			"/>
			<path class="st0" d="M201.1,56.7l-1.6-4.3l-1.7,4.3H201.1z M198.7,50.1h1.6l4.6,10.7h-2.2l-1-2.4h-4.6l-1,2.4h-2.1L198.7,50.1z"
				/>
			<polygon class="st0" points="208.2,50.1 210.1,50.1 210.1,54.4 215.1,54.4 215.1,50.1 217,50.1 217,60.8 215.1,60.8 215.1,56 
				210.1,56 210.1,60.8 208.2,60.8 			"/>
			<polygon class="st0" points="221.2,50.1 223.1,50.1 223.1,57.9 223.1,57.9 228.1,50.1 230.2,50.1 230.2,60.8 228.3,60.8 
				228.3,53 228.3,53 223.3,60.8 221.2,60.8 			"/>
			<path class="st0" d="M239.7,54.9v-3.3h-1.5c-1.3,0-2.3,0.4-2.3,1.6c0,1.1,0.9,1.6,2.3,1.6H239.7z M236.4,56.2
				c-1.5-0.4-2.4-1.4-2.4-3c0-2.2,1.6-3.2,4-3.2h3.5v10.7h-1.9v-4.3h-1.3l-2.5,4.3h-2.3L236.4,56.2z"/>
		</g>
	</g>
	<g>
		<polygon class="st1" points="10,13.1 0.4,21.6 0.4,25.5 8.4,22.5 14.5,13.1 		"/>
		<polygon class="st2" points="0.4,25.5 1.3,30.3 8.4,22.5 		"/>
		<polygon class="st3" points="18.2,9.9 10,13.1 14.5,13.1 		"/>
		<polygon class="st3" points="14.5,13.1 8.4,22.5 22.3,17.9 		"/>
		<polygon class="st3" points="41.7,19 22.3,17.9 27.9,25.5 		"/>
		<polygon class="st1" points="12.4,33.2 1.8,33.3 13.9,37.3 		"/>
		<polygon class="st3" points="8.4,22.5 1.3,30.3 1.8,33.3 12.4,33.2 		"/>
		<polygon class="st1" points="22.3,17.9 8.4,22.5 12.4,33.2 27.9,25.5 		"/>
		<polygon class="st3" points="27.9,25.5 27.6,38.5 41.7,38.4 41.7,35.5 		"/>
		<polygon class="st2" points="27.9,25.5 12.4,33.2 13.9,37.3 27.6,38.5 		"/>
		<polygon class="st1" points="41.7,35.5 55.4,25.5 41.7,19 27.9,25.5 		"/>
		<polygon class="st2" points="22.3,17.9 41.7,19 61,17.9 68.8,13.1 65.1,9.9 41.7,5.6 18.2,9.9 14.5,13.1 		"/>
		<polygon class="st2" points="1.8,33.3 24.5,50.4 13.9,37.3 		"/>
		<polygon class="st1" points="13.9,37.3 37.6,56.4 27.6,38.5 		"/>
		<polygon class="st2" points="27.6,38.5 37.6,56.4 41.7,38.4 		"/>
		<polygon class="st1" points="73.3,13.1 68.8,13.1 74.9,22.5 82.9,25.5 82.9,21.6 		"/>
		<polygon class="st3" points="82,30.3 82.9,25.5 74.9,22.5 		"/>
		<polygon class="st3" points="73.3,13.1 65.1,9.9 68.8,13.1 		"/>
		<polygon class="st3" points="74.9,22.5 68.8,13.1 61,17.9 		"/>
		<polygon class="st3" points="61,17.9 41.7,19 55.4,25.5 		"/>
		<polygon class="st1" points="69.4,37.3 81.5,33.3 70.9,33.2 		"/>
		<polygon class="st2" points="70.9,33.2 81.5,33.3 82,30.3 74.9,22.5 		"/>
		<polygon class="st1" points="55.4,25.5 70.9,33.2 74.9,22.5 61,17.9 		"/>
		<polygon class="st2" points="41.7,38.4 55.7,38.5 55.4,25.5 41.7,35.5 		"/>
		<polygon class="st3" points="55.7,38.5 69.4,37.3 70.9,33.2 55.4,25.5 		"/>
		<polygon class="st2" points="58.8,50.4 81.5,33.3 69.4,37.3 		"/>
		<polygon class="st3" points="45.7,56.4 41.7,38.4 37.6,56.4 13.9,37.3 24.5,50.4 41.7,63.4 58.8,50.4 69.4,37.3 		"/>
		<polygon class="st2" points="45.7,56.4 69.4,37.3 55.7,38.5 		"/>
		<polygon class="st1" points="41.7,38.4 45.7,56.4 55.7,38.5 		"/>
	</g>
</g>
</svg>
